LG_Stand_to_Walk01																		
version=1																		
nRows=63																		
nColumns=19																		
inDegrees=yes																		
endheader																		
time	ground_force2_vx	ground_force2_vy	ground_force2_vz	ground_force2_px	ground_force2_py	ground_force2_pz	ground_torque2_x	ground_torque2_y	ground_torque2_z	ground_force1_vx	ground_force1_vy	ground_force1_vz	ground_force1_px	ground_force1_py	ground_force1_pz	ground_torque1_x	ground_torque1_y	ground_torque1_z
2.99	-26.191967	355.293213	1.577755	0.181312	0	-0.331109	7.00E-06	0.898279	3.00E-06	0	0	0	-0.13	0	0.305	0	0	0
2.991	-26.191967	355.293213	1.890835	0.181312	0	-0.331353	7.00E-06	0.914366	3.00E-06	0	0	0	-0.13	0	0.305	0	0	0
2.992	-26.191967	354.422241	2.439312	0.181312	0	-0.331353	7.00E-06	0.996963	3.00E-06	0	0	0	-0.13	0	0.305	0	0	0
2.993	-26.431292	353.910004	2.282728	0.180657	0	-0.331353	1.00E-05	1.037827	1.00E-06	0	0	0	-0.13	0	0.305	0	0	0
2.994	-26.431292	353.741089	2.282728	0.180782	0	-0.332269	1.00E-05	1.037827	3.00E-06	0	0	0	-0.13	0	0.305	0	0	0
2.995	-26.431292	353.727173	2.047617	0.180553	0	-0.331782	1.00E-05	1.065134	1.00E-06	0	0	0	-0.13	0	0.305	0	0	0
2.996	-25.567715	352.884796	2.047617	0.180782	0	-0.331782	7.00E-06	1.065134	3.00E-06	0	0	0	-0.13	0	0.305	0	0	0
2.997	-26.427685	353.550537	2.047617	0.180483	0	-0.331782	1.30E-05	0.938293	3.00E-06	0	0	0	-0.13	0	0.305	0	0	0
2.998	-25.882008	352.884796	2.047617	0.180894	0	-0.331538	3.00E-06	0.938293	3.00E-06	0	0	0	-0.13	0	0.305	0	0	0
2.999	-26.117722	352.190491	1.812626	0.180452	0	-0.331538	6.00E-06	0.980164	1.00E-06	0	0	0	-0.13	0	0.305	0	0	0
3	-25.882008	352.190491	1.812626	0.180894	0	-0.331538	6.00E-06	0.989923	1.00E-06	0	0	0	-0.13	0	0.305	0	0	0
3.001	-25.803432	352.190491	1.812626	0.180555	0	-0.332071	6.00E-06	0.980164	2.00E-06	0	0	0	-0.13	0	0.305	0	0	0
3.002	-25.64629	353.400848	2.204279	0.180555	0	-0.332071	6.00E-06	0.944232	4.00E-06	0	0	0	-0.13	0	0.305	0	0	0
3.003	-25.803432	351.14978	2.204279	0.180534	0	-0.332022	7.00E-06	0.937211	5.00E-06	0	0	0	-0.13	0	0.305	0	0	0
3.004	-25.644846	351.856445	1.890795	0.180534	0	-0.330595	7.00E-06	0.899829	5.00E-06	0	0	0	-0.13	0	0.305	0	0	0
3.005	-25.881285	351.856445	1.890795	0.180963	0	-0.330516	9.00E-06	0.899829	5.00E-06	0	0	0	-0.13	0	0.305	0	0	0
3.006	-25.881285	354.76709	2.28265	0.180963	0	-0.330516	7.00E-06	0.930542	5.00E-06	0	0	0	-0.13	0	0.305	0	0	0
3.007	-25.881285	354.76709	2.28265	0.181336	0	-0.329957	0	1.006592	5.00E-06	0	0	0	-0.13	0	0.305	0	0	0
3.008	-25.804155	353.576782	1.969288	0.180685	0	-0.330548	0	1.006592	2.00E-06	0	0	0	-0.13	0	0.305	0	0	0
3.009	-25.804155	353.576782	1.812666	0.181336	0	-0.330548	0	0.967021	3.00E-06	0	0	0	-0.13	0	0.305	0	0	0
3.01	-25.959135	353.737976	1.969288	0.181361	0	-0.330548	4.00E-06	0.940044	3.00E-06	0	0	0	-0.13	0	0.305	0	0	0
3.011	-26.271261	355.639648	2.047577	0.181512	0	-0.330528	4.00E-06	0.940044	4.00E-06	0	0	0	-0.13	0	0.305	0	0	0
3.012	-26.351276	355.639648	2.047577	0.181361	0	-0.330528	4.00E-06	0.96019	7.00E-06	0	0	0	-0.13	0	0.305	0	0	0
3.013	-26.351276	354.253723	2.047577	0.181173	0	-0.33122	1.00E-06	1.072221	4.00E-06	0	0	0	-0.13	0	0.305	0	0	0
3.014	-26.349113	353.734131	1.890795	0.181014	0	-0.332197	1.00E-06	1.072221	2.00E-06	0	0	0	-0.13	0	0.305	0	0	0
3.015	-25.962021	353.734131	2.204441	0.180861	0	-0.331252	2.00E-06	0.982888	1.00E-06	0	0	0	-0.13	0	0.305	0	0	0
3.016	-25.72414	353.734131	2.204441	0.180861	0	-0.331252	1.00E-05	0.91912	2.00E-06	0	0	0	-0.13	0	0.305	0	0	0
3.017	-25.72414	351.8414	2.204441	0.180861	0	-0.331252	1.00E-05	0.839634	3.00E-06	0	0	0	-0.13	0	0.305	0	0	0
3.018	-25.881285	351.488831	2.126188	0.180659	0	-0.331183	8.00E-06	0.839634	3.00E-06	0	0	0	-0.13	0	0.305	0	0	0
3.019	-25.881285	351.488831	1.969368	0.180572	0	-0.331127	4.00E-06	0.963212	3.00E-06	0	0	0	-0.13	0	0.305	0	0	0
3.02	-25.881285	352.012634	1.969368	0.180572	0	-0.331127	4.00E-06	1.038508	4.00E-06	0	0	0	-0.13	0	0.305	0	0	0
3.021	-25.806318	353.219971	2.517839	0.180572	0	-0.331281	5.00E-06	1.043314	4.00E-06	0	0	0	-0.13	0	0.305	0	0	0
3.022	-25.9613	353.04718	2.517839	0.180511	0	-0.331469	7.00E-06	1.065893	3.00E-06	0	0	0	-0.13	0	0.305	0	0	0
3.023	-25.490587	353.04718	2.361221	0.180571	0	-0.331469	5.00E-06	1.065893	3.00E-06	0	0	0	-0.13	0	0.305	0	0	0
3.024	-25.56916	352.027344	2.28261	0.180571	0	-0.331469	3.00E-06	0.981182	3.00E-06	0	0	0	-0.13	0	0.305	0	0	0
3.025	-25.56916	352.027344	2.361221	0.18064	0	-0.331431	3.00E-06	0.889246	6.00E-06	0	0	0	-0.13	0	0.305	0	0	0
3.026	-25.56916	352.532593	2.28261	0.180822	0	-0.331431	6.00E-06	0.981182	4.00E-06	0	0	0	-0.13	0	0.305	0	0	0
3.027	-26.036266	353.213806	1.57719	0.180822	0	-0.331431	7.00E-06	1.11944	4.00E-06	0	0	0	-0.13	0	0.305	0	0	0
3.028	-25.959858	352.532593	1.57719	0.180822	0	-0.331347	8.00E-06	1.11944	3.00E-06	0	0	0	-0.13	0	0.305	0	0	0
3.029	-25.959858	352.88092	1.891119	0.181513	0	-0.331204	8.00E-06	0.995768	3.00E-06	0	0	0	-0.13	0	0.305	0	0	0
3.03	-25.959858	352.88092	2.125948	0.181172	0	-0.331204	8.00E-06	0.995768	3.00E-06	0	0	0	-0.13	0	0.305	0	0	0
3.031	-25.962746	354.075134	2.125948	0.181172	0	-0.331309	7.00E-06	0.927422	5.00E-06	0	0	0	-0.13	0	0.305	0	0	0
3.032	-26.035543	354.075134	2.125948	0.181172	0	-0.331484	7.00E-06	1.098341	6.00E-06	0	0	0	-0.13	0	0.305	0	0	0
3.033	-26.274868	354.073181	2.204359	0.18083	0	-0.331484	4.00E-06	1.085657	5.00E-06	0	0	0	-0.13	0	0.305	0	0	0
3.034	-26.274868	353.056793	2.204319	0.180913	0	-0.332316	4.00E-06	1.085657	4.00E-06	0	0	0	-0.13	0	0.305	0	0	0
3.035	-26.272705	354.073181	2.204359	0.180913	0	-0.332316	8.00E-06	0.964679	3.00E-06	0	0	0	-0.13	0	0.305	0	0	0
3.036	-26.114838	353.038635	2.28269	0.180913	0	-0.332091	8.00E-06	0.964679	3.00E-06	0	0	0	-0.13	0	0.305	0	0	0
3.037	-25.879841	352.865479	2.517721	0.180662	0	-0.331415	5.00E-06	0.964679	4.00E-06	0	0	0	-0.13	0	0.305	0	0	0
3.038	-25.879841	352.865479	2.674501	0.180536	0	-0.331878	5.00E-06	0.99588	5.00E-06	0	0	0	-0.13	0	0.305	0	0	0
3.039	-25.879841	351.152496	2.674501	0.180522	0	-0.331529	5.00E-06	0.950592	4.00E-06	0	0	0	-0.13	0	0.305	0	0	0
3.04	-25.88345	351.672455	2.674501	0.180394	0	-0.331529	7.00E-06	1.036685	3.00E-06	0	0	0	-0.13	0	0.305	0	0	0
3.041	-25.648453	351.672455	2.596094	0.180394	0	-0.331239	7.00E-06	1.010622	3.00E-06	0	0	0	-0.13	0	0.305	0	0	0
3.042	-25.648453	351.672455	2.831367	0.180394	0	-0.331239	2.00E-06	1.010622	5.00E-06	0	0	0	-0.13	0	0.305	0	0	0
3.043	-25.570602	351.671661	2.752754	0.180984	0	-0.33124	2.00E-06	1.010622	5.00E-06	0	0	0	-0.13	0	0.305	0	0	0
3.044	-25.570602	351.499664	2.752794	0.180223	0	-0.33124	5.00E-06	1.018136	5.00E-06	0	0	0	-0.13	0	0.305	0	0	0
3.045	-25.49131	351.671661	2.752794	0.180149	0	-0.330423	5.00E-06	1.018136	3.00E-06	0	0	0	-0.13	0	0.305	0	0	0
3.046	-25.807762	351.672089	2.752794	0.180149	0	-0.330423	8.00E-06	1.030602	6.00E-06	0	0	0	-0.13	0	0.305	0	0	0
3.047	-25.412014	352.18158	2.28281	0.180667	0	-0.33127	5.00E-06	0.964378	3.00E-06	0	0	0	-0.13	0	0.305	0	0	0
3.048	-25.412014	352.18158	2.28281	0.180993	0	-0.33127	0	0.966074	4.00E-06	0	0	0	-0.13	0	0.305	0	0	0
3.049	-25.412014	352.18158	2.361303	0.180993	0	-0.331578	0	0.964378	4.00E-06	0	0	0	-0.13	0	0.305	0	0	0
3.05	-25.807043	353.046021	2.752874	0.180993	0	-0.330949	7.00E-06	0.966074	4.00E-06	0	0	0	-0.13	0	0.305	0	0	0
3.051	-25.807043	353.735657	2.752874	0.181109	0	-0.331385	1.00E-05	0.952576	3.00E-06	0	0	0	-0.13	0	0.305	0	0	0
3.052	-25.807043	353.735657	2.752954	0.18081	0	-0.331385	7.00E-06	1.064894	1.00E-06	0	0	0	-0.13	0	0.305	0	0	0
